<?xml version="1.0" encoding="UTF-8"?> <svg xmlns="http://www.w3.org/2000/svg" width="180" height="51" viewBox="0 0 180 51" fill="none"><path d="M49.4609 37.991V15.0844H56.87C59.2685 15.0844 61.352 15.5764 63.1204 16.5603C64.9092 17.5237 66.2914 18.8663 67.267 20.5882C68.2427 22.2895 68.7306 24.2676 68.7306 26.5224C68.7306 28.7566 68.2427 30.745 67.267 32.4873C66.2914 34.2091 64.9092 35.562 63.1204 36.5459C61.352 37.5093 59.2685 37.991 56.87 37.991H49.4609ZM53.6076 34.3014H56.9615C58.5063 34.3014 59.8377 33.9837 60.9556 33.3482C62.0939 32.6923 62.9781 31.7904 63.6083 30.6425C64.2384 29.4741 64.5534 28.1007 64.5534 26.5224C64.5534 24.9235 64.2384 23.5501 63.6083 22.4022C62.9781 21.2543 62.0939 20.3627 60.9556 19.7272C59.8377 19.0918 58.5063 18.7741 56.9615 18.7741H53.6076V34.3014Z" fill="black"></path><path d="M76.6665 38.36C75.5079 38.36 74.5017 38.1653 73.648 37.7758C72.7943 37.3864 72.1337 36.8329 71.6662 36.1155C71.1987 35.3775 70.9649 34.5269 70.9649 33.5635C70.9649 32.641 71.1682 31.8211 71.5747 31.1037C71.9812 30.3657 72.6114 29.7508 73.4651 29.2589C74.3188 28.7669 75.3961 28.4184 76.697 28.2134L82.1242 27.3218V30.3965L77.4592 31.1959C76.6665 31.3394 76.077 31.5956 75.6908 31.9646C75.3046 32.3336 75.1115 32.8153 75.1115 33.4097C75.1115 33.9837 75.325 34.4449 75.7518 34.7933C76.199 35.1213 76.7478 35.2853 77.3983 35.2853C78.2317 35.2853 78.9634 35.1111 79.5935 34.7626C80.244 34.3936 80.742 33.8914 81.0875 33.256C81.4534 32.6205 81.6364 31.9236 81.6364 31.1652V26.8606C81.6364 26.1431 81.3518 25.5487 80.7826 25.0772C80.2338 24.5853 79.5021 24.3393 78.5874 24.3393C77.7337 24.3393 76.9714 24.575 76.3006 25.0465C75.6502 25.4974 75.1725 26.1021 74.8676 26.8606L71.6052 25.2617C71.9304 24.3803 72.4386 23.6219 73.1297 22.9864C73.8411 22.3305 74.6745 21.818 75.6299 21.4491C76.5852 21.0801 77.6219 20.8956 78.7398 20.8956C80.1017 20.8956 81.301 21.1519 82.3376 21.6643C83.3743 22.1563 84.1772 22.8532 84.7463 23.7551C85.3358 24.6365 85.6305 25.6717 85.6305 26.8606V37.991H81.8498V35.1316L82.7035 35.0701C82.2767 35.7875 81.7685 36.3922 81.179 36.8841C80.5895 37.3556 79.9188 37.7246 79.1667 37.991C78.4146 38.237 77.5812 38.36 76.6665 38.36Z" fill="black"></path><path d="M95.2372 38.36C93.9567 38.36 92.8387 38.073 91.8834 37.4991C90.9483 36.9251 90.2267 36.1257 89.7186 35.1008C89.2307 34.0759 88.9868 32.8768 88.9868 31.5034V21.2646H92.981V31.1652C92.981 31.8621 93.1131 32.4771 93.3774 33.01C93.6619 33.5225 94.0583 33.9324 94.5665 34.2399C95.095 34.5269 95.6844 34.6704 96.3349 34.6704C96.9853 34.6704 97.5646 34.5269 98.0728 34.2399C98.581 33.9324 98.9773 33.5122 99.2619 32.9793C99.5465 32.4463 99.6888 31.8109 99.6888 31.0729V21.2646H103.683V37.991H99.9022V34.7011L100.238 35.2853C99.8514 36.3102 99.2111 37.0789 98.3167 37.5913C97.4427 38.1038 96.4162 38.36 95.2372 38.36Z" fill="black"></path><path d="M109.408 44.7862C108.961 44.7862 108.524 44.7452 108.097 44.6632C107.67 44.6017 107.284 44.4889 106.938 44.325V40.9428C107.203 41.0043 107.518 41.0658 107.884 41.1273C108.27 41.1887 108.626 41.2195 108.951 41.2195C109.865 41.2195 110.526 41.0043 110.933 40.5738C111.359 40.1433 111.736 39.5796 112.061 38.8827L113.158 36.3L113.097 39.6821L105.871 21.2646H110.17L115.232 34.8548H113.707L118.738 21.2646H123.068L115.842 39.6821C115.415 40.7685 114.896 41.691 114.287 42.4494C113.677 43.2078 112.965 43.7818 112.152 44.1712C111.359 44.5812 110.445 44.7862 109.408 44.7862Z" fill="black"></path><path d="M131.572 38.36C129.804 38.36 128.259 37.9398 126.938 37.0994C125.637 36.2385 124.743 35.0803 124.255 33.6249L127.243 32.1798C127.67 33.1227 128.259 33.8607 129.011 34.3936C129.784 34.9266 130.637 35.1931 131.572 35.1931C132.304 35.1931 132.883 35.0291 133.31 34.7011C133.737 34.3731 133.951 33.9427 133.951 33.4097C133.951 33.0817 133.859 32.8153 133.676 32.6103C133.514 32.3848 133.28 32.2003 132.975 32.0568C132.69 31.8929 132.375 31.7596 132.03 31.6571L129.316 30.8885C127.914 30.4785 126.846 29.8533 126.115 29.0129C125.403 28.1725 125.048 27.1783 125.048 26.0304C125.048 25.0055 125.302 24.1138 125.81 23.3554C126.338 22.5765 127.06 21.9718 127.975 21.5413C128.91 21.1109 129.977 20.8956 131.176 20.8956C132.741 20.8956 134.123 21.2748 135.323 22.0333C136.522 22.7917 137.376 23.8576 137.884 25.231L134.835 26.6761C134.55 25.9177 134.073 25.313 133.402 24.862C132.731 24.4111 131.979 24.1856 131.146 24.1856C130.475 24.1856 129.946 24.3393 129.56 24.6468C129.174 24.9543 128.981 25.354 128.981 25.8459C128.981 26.1534 129.062 26.4199 129.225 26.6453C129.387 26.8708 129.611 27.0553 129.895 27.1988C130.2 27.3423 130.546 27.4755 130.932 27.5985L133.585 28.3979C134.947 28.8079 135.993 29.4228 136.725 30.2428C137.477 31.0627 137.853 32.0671 137.853 33.256C137.853 34.2604 137.589 35.1521 137.061 35.931C136.532 36.6894 135.8 37.2839 134.865 37.7143C133.93 38.1448 132.833 38.36 131.572 38.36Z" fill="black"></path><path d="M140.1 37.991L143.271 15.0844H147.417L145.771 27.0143L144.673 26.6146L155.954 15.0844H161.168L150.619 25.9074L151.289 22.9557L158.272 37.991H153.668L148.881 27.7215L145.13 31.5649L144.246 37.991H140.1Z" fill="black"></path><path d="M160.458 37.991L162.775 21.2646H166.8L164.483 37.991H160.458ZM163.019 19.389L163.629 15.0844H167.654L167.074 19.389H163.019Z" fill="black"></path><path d="M175.944 38.1755C174.033 38.1755 172.61 37.6426 171.675 36.5767C170.761 35.4903 170.425 34.0144 170.669 32.1491L171.675 24.862H168.84L169.328 21.2646H169.541C170.354 21.2646 171.035 21.0289 171.584 20.5574C172.133 20.086 172.458 19.4403 172.56 18.6203L172.712 17.4519H176.767L176.249 21.2646H179.999L179.511 24.862H175.731L174.724 32.1183C174.643 32.6923 174.653 33.1637 174.755 33.5327C174.877 33.9017 175.111 34.1784 175.456 34.3629C175.822 34.5474 176.32 34.6396 176.95 34.6396C177.133 34.6396 177.316 34.6396 177.499 34.6396C177.682 34.6191 177.895 34.5884 178.139 34.5474L177.834 37.991C177.55 38.073 177.225 38.1243 176.859 38.1448C176.513 38.1653 176.208 38.1755 175.944 38.1755Z" fill="black"></path><path d="M0.353687 7.21715C0.158351 4.96561 1.80996 2.98069 4.04266 2.78371L11.8648 2.09359C24.9703 0.937331 36.5239 10.7137 37.6705 23.9298C38.817 37.1459 29.1224 48.797 16.0169 49.9532L8.1948 50.6433C5.9621 50.8403 3.99379 49.1748 3.79845 46.9232L0.353687 7.21715Z" fill="#0094FF"></path></svg> 